<svg xmlns="http://www.w3.org/2000/svg" width="254.12" height="16.031" viewBox="0 0 254.12 16.031">
  <metadata><?xpacket begin="﻿" id="W5M0MpCehiHzreSzNTczkc9d"?>
<x:xmpmeta xmlns:x="adobe:ns:meta/" x:xmptk="Adobe XMP Core 5.6-c140 79.160451, 2017/05/06-01:08:21        ">
   <rdf:RDF xmlns:rdf="http://www.w3.org/1999/02/22-rdf-syntax-ns#">
      <rdf:Description rdf:about=""/>
   </rdf:RDF>
</x:xmpmeta>
                                                                                                    
                                                                                                    
                                                                                                    
                                                                                                    
                                                                                                    
                                                                                                    
                                                                                                    
                                                                                                    
                                                                                                    
                                                                                                    
                                                                                                    
                                                                                                    
                                                                                                    
                                                                                                    
                                                                                                    
                                                                                                    
                                                                                                    
                                                                                                    
                                                                                                    
                                                                                                    
                           
<?xpacket end="w"?></metadata>
<defs>
    <style>
      .cls-1 {
        fill: #fff;
        fill-rule: evenodd;
      }
    </style>
  </defs>
  <path id="behance" class="cls-1" d="M779.947,451.012h2.063v-3.046h-2.424v0.011c-2.936.1-3.539,1.755-3.592,3.489h-0.006v1.521h-2v2.983h2v8H779v-8h2.469l0.475-2.983H779v-0.919A0.982,0.982,0,0,1,779.947,451.012Zm57.615-.452a5.772,5.772,0,0,1-1.832.519,3.507,3.507,0,0,0,1.376-1.792,5.343,5.343,0,0,1-2.06.729s0,0,0,0a3.3,3.3,0,0,0-5.687,2.28,3.235,3.235,0,0,0,.085.735h0a9.523,9.523,0,0,1-6.992-3.423,3.3,3.3,0,0,0,1,4.36,2.114,2.114,0,0,1-1.442-.373,3.181,3.181,0,0,0,2.546,3.226,2.584,2.584,0,0,1-1.374.1,3.122,3.122,0,0,0,2.95,2.241,5.409,5.409,0,0,1-4.571,1.37A9.917,9.917,0,0,0,826.725,462a9.169,9.169,0,0,0,9.238-9.64c0-.005,0-0.012,0-0.017s0-.029,0-0.042,0-.032,0-0.049A5.684,5.684,0,0,0,837.562,450.56Zm45.957,6.66c-1.632-1.163-2.243-1.712-1.2-2.634s1.872-1.668,1.872-3.381a3.22,3.22,0,0,0-1.415-2.588,3.1,3.1,0,0,0,1.568-.155,5.8,5.8,0,0,0,.783-0.5h-5.2c-1.044,0-3.94,1.185-3.94,3.95s3,3.359,4.094,3.316a1.266,1.266,0,0,0,.239,1.777c0.327,0.351.261,0.461-.13,0.461s-5.226.052-5.226,3.513,6.423,3.711,8.535,1.845A3.479,3.479,0,0,0,883.519,457.22Zm-3.091-2.679c-2.592,0-3.768-6.057-.719-6.057C882.082,448.4,883.867,454.541,880.428,454.541Zm-0.308,8.474c-2.153,0-3.307-1.075-3.307-2.677s1.568-2.394,4.507-2.394c0.8,0.614,2.221,1.36,2.221,2.854S882.273,463.015,880.12,463.015ZM888.015,448v1.97h1.959v1.022h-1.959v1.973H887v-1.973h-1.992v-1.022H887V448h1.018Zm45.953,0a8,8,0,1,0,8,8A8,8,0,0,0,933.968,448Zm5.249,3.873a6.647,6.647,0,0,1,1.428,3.941,14.2,14.2,0,0,0-4.679-.114q-0.255-.582-0.524-1.133A9.65,9.65,0,0,0,939.217,451.87Zm-0.919-.956a8.452,8.452,0,0,1-3.463,2.466,34.089,34.089,0,0,0-2.441-3.874,6.536,6.536,0,0,1,1.574-.192A6.655,6.655,0,0,1,938.3,450.914Zm-7.2-.948a32.951,32.951,0,0,1,2.471,3.836,23.517,23.517,0,0,1-6.1.662A6.7,6.7,0,0,1,931.1,449.966ZM927.285,456c0-.072,0-0.145.007-0.216h0.036a24.567,24.567,0,0,0,6.864-.781c0.159,0.322.315,0.653,0.465,0.991a10.417,10.417,0,0,0-5.717,4.4A6.65,6.65,0,0,1,927.285,456Zm2.628,5.306a9.169,9.169,0,0,1,5.258-4.087,22.683,22.683,0,0,1,1.341,4.957A6.657,6.657,0,0,1,929.913,461.3Zm7.829,0.2a24.129,24.129,0,0,0-1.261-4.549,13.272,13.272,0,0,1,4.072.171A6.69,6.69,0,0,1,937.742,461.508Zm33.273,2.474h3V454h-3v9.987Zm11.672-10.332a4.494,4.494,0,0,0-3.678,1.7v-1.39H976v10.019h3.007v-5.418a2.379,2.379,0,0,1,2.364-2.262c1.314,0,1.637,1.117,1.637,2.235v5.445h3v-5.669C986.007,454.376,984.142,453.65,982.687,453.65Zm-10.222-4.7a1.77,1.77,0,1,0,1.958,1.761A1.867,1.867,0,0,0,972.465,448.951ZM1012,453h4.67c1.89,0,3.17.675,3.17,2.522a2.181,2.181,0,0,1-1.35,2.072,2.423,2.423,0,0,1,1.82,2.515c0,2.016-1.71,2.879-3.5,2.879H1012V453Zm1.99,4.08h2.4a1.15,1.15,0,0,0,1.34-1.18c0-.946-0.73-1.142-1.5-1.142h-2.24v2.322Zm0,4.212h2.53c0.86,0,1.61-.278,1.61-1.307a1.342,1.342,0,0,0-1.57-1.419h-2.57v2.726Zm8.94-1.325a1.488,1.488,0,0,0,1.76,1.634c0.8,0,1.44-.142,1.56-0.588h1.74c-0.56,1.7-1.74,2.076-3.37,2.076a3.506,3.506,0,0,1-3.66-3.781,3.6,3.6,0,0,1,3.66-3.794c2.45,0,3.63,2.243,3.49,4.453h-5.18Zm3.21-1.063c-0.18-1-.61-1.9-1.57-1.9-1.25,0-1.61,1.348-1.64,1.9h3.21Zm0.82-3.918H1022v-1.011h4.96v1.011Z" transform="translate(-774 -447.969)"/>
</svg>
