<svg xmlns="http://www.w3.org/2000/svg" width="15.156" height="11" viewBox="0 0 15.156 11">
  <metadata><?xpacket begin="﻿" id="W5M0MpCehiHzreSzNTczkc9d"?>
<x:xmpmeta xmlns:x="adobe:ns:meta/" x:xmptk="Adobe XMP Core 5.6-c140 79.160451, 2017/05/06-01:08:21        ">
   <rdf:RDF xmlns:rdf="http://www.w3.org/1999/02/22-rdf-syntax-ns#">
      <rdf:Description rdf:about=""/>
   </rdf:RDF>
</x:xmpmeta>
                                                                                                    
                                                                                                    
                                                                                                    
                                                                                                    
                                                                                                    
                                                                                                    
                                                                                                    
                                                                                                    
                                                                                                    
                                                                                                    
                                                                                                    
                                                                                                    
                                                                                                    
                                                                                                    
                                                                                                    
                                                                                                    
                                                                                                    
                                                                                                    
                                                                                                    
                                                                                                    
                           
<?xpacket end="w"?></metadata>
<defs>
    <style>
      .cls-1 {
        fill: #fff;
        fill-rule: evenodd;
      }
    </style>
  </defs>
  <path id="email" class="cls-1" d="M417.493,4176.17L417,4176H404a1.382,1.382,0,0,0-1,1v9a1.4,1.4,0,0,0,1,1h14c0.367,0,0-.64,0-1v-9A0.715,0.715,0,0,0,417.493,4176.17ZM417,4186a8.333,8.333,0,0,0,1,0H404c-0.039,0,0,.04,0,0h0l5-4,0.783,0.79a1.128,1.128,0,0,0,1.416,0l0.8-.79,5,4h0Zm-6.173-3.66h0c-0.006.01,0.192-.35,0.178-0.34a2.871,2.871,0,0,1-.5.45h-0.006S410,4182,410,4182c-0.126,0,.081.07,0,0l-5-5a1.456,1.456,0,0,0-1,0h13c0.023,0-.015-0.02,0,0l-6,5ZM404,4185v-8l4,4Zm13-7v7l-4-4Z" transform="translate(-403 -4176)"/>
</svg>
