<?xml version="1.0" encoding="UTF-8"?>
<svg width="88px" height="21px" viewBox="0 0 88 21" version="1.1" xmlns="http://www.w3.org/2000/svg" xmlns:xlink="http://www.w3.org/1999/xlink">
    <!-- Generator: sketchtool 53.2 (72643) - https://sketchapp.com -->
    <title>E3BA1517-3D65-4CA3-8E0D-F86403220695@1,5x</title>
    <desc>Created with sketchtool.</desc>
    <g id="all" stroke="none" stroke-width="1" fill="none" fill-rule="evenodd">
        <g id="vbr_dt_vidacha_desig_concept" transform="translate(-111.000000, -31.000000)" fill="#295FFE">
            <g id="Menu/Top_menu">
                <g id="Logos/logo_button" transform="translate(72.000000, 16.000000)">
                    <g id="logobutt">
                        <path d="M49.9517383,26.7770594 C49.9517383,25.3347394 48.8737383,24.8758823 47.2663554,24.8758823 L41.9502754,24.8758823 L41.9502754,28.7001109 L47.0772811,28.7001109 C48.9494183,28.7001109 49.9517383,28.1975051 49.9517383,26.7770594 L49.9517383,26.7770594 Z M41.9502754,22.3409794 L47.2285154,22.3409794 C48.5144469,22.3409794 49.4222297,21.6635051 49.4222297,20.5052994 C49.4222297,19.3252194 48.533304,18.6916194 47.2285154,18.6916194 L41.9502754,18.6916194 L41.9502754,22.3409794 Z M52.9020011,27.2140423 C52.9020011,29.7708194 51.029864,31.3442594 47.3608926,31.3442594 L39.0000126,31.3442594 L39.0000126,16.0474709 L47.3797497,16.0474709 C50.4623897,16.0474709 52.3724926,17.686408 52.3724926,20.0683166 C52.3724926,22.1442366 50.8595211,23.2150709 48.8737383,23.5209337 C51.4835669,23.805048 52.9020011,24.985128 52.9020011,27.2140423 Z M66.5761829,31.3442971 L66.5761829,19.8934857 L69.3941943,19.8934857 L69.3941943,31.3442971 L66.5761829,31.3442971 Z M62.6525143,27.5200686 C62.6525143,26.6022286 62.0663086,26.0122514 60.2696,26.0122514 L56.9033486,26.0122514 L56.9033486,29.0060114 L60.2696,29.0060114 C62.0663086,29.0060114 62.6525143,28.4159086 62.6525143,27.5200686 Z M65.4515429,27.5419429 C65.4515429,29.7708571 64.2221829,31.3442971 60.4965143,31.3442971 L55.3903771,31.3442971 L54.0853371,31.3442971 L54.0853371,19.8934857 L56.9033486,19.8934857 L56.9033486,23.7395886 L60.4965143,23.7395886 C64.2221829,23.7395886 65.4515429,25.2910286 65.4515429,27.5419429 Z M81.3195897,25.9684777 C81.3195897,24.0236777 79.8254754,22.7998491 77.3290411,22.7998491 C74.8517154,22.7998491 73.3764583,24.0236777 73.3764583,25.9684777 C73.3764583,27.9134034 74.8517154,29.1371063 77.3290411,29.1371063 C79.8254754,29.1371063 81.3195897,27.9134034 81.3195897,25.9684777 Z M84.0996354,25.9684777 C84.0996354,29.377472 81.546504,31.606512 77.3290411,31.606512 C73.490104,31.606512 70.5775554,29.639712 70.5775554,24.0673006 C70.5775554,19.325232 72.1283669,16.8995749 76.0431097,16.069232 C77.3290411,15.7851177 78.577384,15.675872 79.7497954,15.5448777 C80.9980126,15.3918834 81.7732926,15.3043863 82.7000583,14.9985234 L82.7000583,17.5334263 C82.0381726,17.8611634 81.1303897,18.036032 80.0713726,18.1452777 C79.1446069,18.2326491 78.5015783,18.2763977 77.461544,18.3637691 C74.9651097,18.6260091 73.1685269,19.1942377 72.7146983,23.3462034 C73.5089611,21.4887749 75.2865611,20.3304434 77.8775326,20.3304434 C81.5653611,20.3304434 84.0996354,22.5594834 84.0996354,25.9684777 Z M88.1575166,24.5917554 L95.722248,24.5917554 C95.5898709,22.9091954 94.2849566,21.8602354 92.0534023,21.8602354 C90.0486366,21.8602354 88.5357909,22.668704 88.1575166,24.5917554 Z M98.5022937,26.580304 L88.1386594,26.580304 C88.516808,28.547104 90.0676194,29.3774469 92.2236194,29.3774469 C93.8878251,29.3774469 94.9846823,28.8749669 95.5520309,28.0881211 L98.2942366,28.2193669 C97.5756537,30.3609097 95.4764766,31.6064869 92.2236194,31.6064869 C88.1196766,31.6064869 85.2829337,29.7708069 85.2829337,25.6188411 C85.2829337,21.510624 88.1196766,19.6311954 92.0534023,19.6311954 C96.1762023,19.6311954 98.5022937,21.6198697 98.5022937,26.2306926 L98.5022937,26.580304 Z M110.087167,25.6188411 C110.087167,23.5210469 108.612161,22.1006011 106.229247,22.1006011 C103.82735,22.1006011 102.371201,23.5210469 102.371201,25.6188411 C102.371201,27.7166354 103.82735,29.1370811 106.229247,29.1370811 C108.612161,29.1370811 110.087167,27.7166354 110.087167,25.6188411 Z M112.867213,25.6188411 C112.867213,29.3993211 110.427601,31.6064869 107.080333,31.6064869 C105.170104,31.6064869 103.487041,30.907264 102.503578,29.3993211 L102.503578,35.714704 L99.6856926,35.714704 L99.6856926,19.8934354 L102.276664,19.8934354 L102.276664,22.1879726 C103.222161,20.3960411 104.98103,19.6311954 107.042493,19.6311954 C110.427601,19.6311954 112.867213,21.8383611 112.867213,25.6188411 Z M126.806186,19.8934606 L122.002518,32.1746149 C120.905661,35.1028777 119.752106,35.9769691 116.877398,35.9769691 C116.423569,35.9769691 115.761558,35.9333463 115.194209,35.8677234 L115.194209,33.3765691 C115.704861,33.420192 116.272335,33.4420663 116.688198,33.4420663 C118.125615,33.4420663 118.806483,33.1362034 119.317009,31.8468777 L119.506209,31.344272 L118.295832,31.344272 L112.981512,19.8934606 L116.083135,19.8934606 L120.413866,29.9675749 L123.780243,19.8934606 L126.806186,19.8934606 Z" id="Fill-1"></path>
                    </g>
                </g>
            </g>
        </g>
    </g>
</svg>