<?xml version="1.0" encoding="iso-8859-1"?>
<!-- Generator: Adobe Illustrator 19.1.0, SVG Export Plug-In . SVG Version: 6.00 Build 0)  -->
<svg version="1.1" id="&#x421;&#x43B;&#x43E;&#x439;_1"
	 xmlns="http://www.w3.org/2000/svg" xmlns:xlink="http://www.w3.org/1999/xlink" x="0px" y="0px" viewBox="0 0 763.568 334.233"
	 style="enable-background:new 0 0 763.568 334.233;" xml:space="preserve">
<g>
	<rect x="557.829" y="63.52" width="2.4" height="45.628"/>
	<polygon points="599.677,141.895 598.544,142.548 549.861,114.441 549.861,113.134 549.861,59.534 549.861,58.227 582.351,39.469 
		581.152,37.39 548.661,56.148 499.378,27.694 498.179,29.774 546.33,57.574 546.33,57.574 547.461,58.227 547.461,59.534 
		547.461,113.134 547.461,114.441 546.33,115.095 498.778,142.548 451.227,115.095 449.494,114.095 448.895,113.749 
		448.296,114.095 446.563,115.095 415.205,133.199 416.404,135.278 447.762,117.174 448.895,116.52 450.028,117.174 
		496.447,143.974 498.179,144.974 498.778,145.319 499.378,144.974 501.11,143.974 548.661,116.52 592.16,141.634 592.16,180.339 
		594.56,180.339 594.56,143.02 596.213,143.974 597.945,144.974 598.544,145.319 599.144,144.974 600.876,143.974 600.876,143.974 
		602.528,143.02 602.528,180.339 604.928,180.339 604.928,141.634 632.234,125.869 631.035,123.79 	"/>
	
		<rect x="622.906" y="39.352" transform="matrix(-0.4996 0.8663 -0.8663 -0.4996 983.9343 -457.4767)" width="2.4" height="32.224"/>
	<path d="M397.812,199.534v1.307l-48.683,28.107l-48.683-28.107v-54.907v-1.307l48.683-28.107l32.491,18.759l1.199-2.079
		l-31.358-18.105l-1.732-1l-0.599-0.346l-0.6,0.346l-1.732,1l-48.151,27.8l-0.601,0.345v0.694v2v54.907l-47.55,27.453l-1.27,0.733
		l-53.765-17.469l-22.397-50.305l0,0l-0.814-1.827l-0.281-0.632l-0.688-0.073l-1.989-0.209v0l-53.306-5.603v0l-1.989-0.209
		l-0.689-0.074l-0.409,0.562l-33.45,46.039l-1.299-0.137v0l-41.435-4.355l-0.254,2.386l41.434,4.355v0l1.301,0.137l23.146,51.987
		l0.281,0.632l0.688,0.073l1.989,0.209v0l53.306,5.603v0l1.459,0.153l21.168,29.135l1.941-1.412l-20.968-28.86l0.663-0.912l0,0
		l31.505-43.363l0.664-0.913l53.122,17.261v1.128v34.639h2.4v-34.639v-1.307l48.683-28.107l49.284,28.454l0.6,0.346l0.599-0.346
		l49.883-28.8l0.601-0.345v-0.694v-2v-35.577h-2.4V199.534z M160.162,257.868l-1.299-0.137v0l-53.307-5.603v0l-1.301-0.137
		l-0.532-1.194l-22.333-50.16l32.273-44.42l0.769-1.058l1.299,0.137v0l54.608,5.74l22.864,51.354L160.162,257.868z"/>
	<rect x="237.795" y="236.32" width="2.4" height="30.653"/>
	<rect x="221.076" y="286.483" transform="matrix(-0.3093 -0.951 0.951 -0.3093 8.8384 599.8899)" width="2.4" height="20.504"/>
	<rect x="150.582" y="189.242" transform="matrix(-0.4067 -0.9135 0.9135 -0.4067 69.9464 426.3069)" width="45.628" height="2.4"/>
	<rect x="82.515" y="182.087" transform="matrix(0.5878 -0.809 0.809 0.5878 -104.8644 160.7668)" width="45.628" height="2.4"/>
	<polygon points="110.351,244.621 155.729,249.39 155.983,247.004 110.605,242.234 	"/>
	<polygon points="590.771,20.306 590.947,20.306 606.376,42.357 609.794,42.357 609.794,14.173 606.318,14.173 606.318,36.303 
		606.142,36.303 590.712,14.173 587.294,14.173 587.294,42.357 590.771,42.357 	"/>
	<polygon points="656.201,122.703 656.025,122.703 640.595,100.574 637.177,100.574 637.177,128.757 640.654,128.757 
		640.654,106.706 640.83,106.706 656.259,128.757 659.677,128.757 659.677,100.574 656.201,100.574 	"/>
	<polygon points="748.793,56.495 700.642,28.694 698.91,27.694 698.31,27.349 697.711,27.694 695.979,28.694 648.427,56.148 
		615.936,37.39 614.737,39.469 646.096,57.574 646.096,57.574 647.227,58.227 647.227,94.174 649.627,94.174 649.627,58.227 
		650.759,57.574 650.759,57.574 698.31,30.12 745.862,57.574 745.862,57.574 746.994,58.227 746.994,59.534 746.994,113.134 
		746.994,114.441 699.443,141.895 699.443,141.895 698.31,142.549 697.178,141.895 697.178,141.895 665.819,123.79 664.62,125.869 
		697.711,144.974 698.31,145.319 698.91,144.974 748.793,116.174 749.393,115.829 749.393,115.134 749.393,113.134 749.393,59.534 
		749.393,57.534 749.395,56.841 	"/>
	<path d="M598.544,186.739c-7.988,0-12.988,5.625-12.988,14.57s5,14.551,12.988,14.551c7.988,0,12.988-5.605,12.988-14.551
		S606.532,186.739,598.544,186.739z M598.544,212.618c-5.762,0-9.375-4.375-9.375-11.309c0-6.953,3.613-11.328,9.375-11.328
		c5.762,0,9.375,4.375,9.375,11.328C607.919,208.243,604.306,212.618,598.544,212.618z"/>
	<polygon points="406.785,151.502 406.61,151.502 391.18,129.374 387.762,129.374 387.762,157.557 391.238,157.557 391.238,135.506 
		391.414,135.506 406.844,157.557 410.262,157.557 410.262,129.374 406.785,129.374 	"/>
	<polygon points="257.136,295.502 256.96,295.502 241.531,273.374 238.113,273.374 238.113,301.557 241.589,301.557 
		241.589,279.506 241.765,279.506 257.195,301.557 260.613,301.557 260.613,273.374 257.136,273.374 	"/>
	<path d="M194.582,290.939c-7.988,0-12.988,5.625-12.988,14.57s5,14.551,12.988,14.551s12.988-5.605,12.988-14.551
		S202.57,290.939,194.582,290.939z M194.582,316.817c-5.762,0-9.375-4.375-9.375-11.309c0-6.953,3.613-11.328,9.375-11.328
		s9.375,4.375,9.375,11.328C203.957,312.442,200.344,316.817,194.582,316.817z"/>
	<polygon points="14.174,208.095 17.69,208.095 17.69,195.888 30.17,195.888 30.17,192.763 17.69,192.763 17.69,183.076 
		31.283,183.076 31.283,179.912 14.174,179.912 	"/>
</g>
</svg>
